<?xml version="1.0" encoding="UTF-8"?>
<svg width="60px" height="76px" viewBox="0 0 60 76" version="1.1" xmlns="http://www.w3.org/2000/svg" xmlns:xlink="http://www.w3.org/1999/xlink">
    <title>B6CD5A83-5FB5-4F5D-B7E5-47D9233BD158</title>
    <g id="Page-1" stroke="none" stroke-width="1" fill="none" fill-rule="evenodd">
        <g id="Experience---Home" transform="translate(-692.000000, -542.000000)" fill="#FFFFFF" fill-rule="nonzero">
            <g id="Group-4" transform="translate(652.000000, 514.000000)">
                <path d="M79.8038317,34.5636361 C85.8014921,36.2175848 89.9856554,40.133837 92.3880313,45.4174971 C93.1027255,46.989358 93.6325063,48.6675237 93.9715882,50.2726974 L94.0294454,50.5551691 C94.1970713,51.4000923 94.3111534,52.2216015 94.3708332,52.9930922 L94.3887103,53.2483668 C94.4627233,54.4306623 94.4048652,55.4847727 94.2119049,56.3105576 L94.1907135,56.3981563 C93.6893404,58.4009018 93.8756988,60.8645482 94.637687,63.2795847 C94.8341045,63.902108 95.0636282,64.500719 95.3144164,65.0577577 L95.4158377,65.2783141 C95.996667,66.5150952 96.6786372,67.5261889 97.3238463,68.1059316 L97.543874,68.2987863 L97.6236342,68.370234 L97.6236342,68.370234 L97.7794568,68.5131942 C99.7474284,70.3483773 100.49008,72.2032291 99.6722188,74.0010197 C99.0215816,75.4312249 97.4496722,76.5383516 94.9752044,77.4444377 L94.7114013,77.5390779 L94.5770012,77.585851 L94.5770012,77.585851 L94.403398,77.6447138 L94.3925182,77.9267083 C93.9556426,87.7248513 88.3955723,94.1762673 80.7857076,94.3096087 L80.5447183,94.3117158 C77.9083439,94.3117158 76.2995952,95.2119837 75.3552104,96.8638502 C74.5960773,98.1916846 74.2873049,99.9361793 74.2873049,102.067021 C74.2873049,102.796401 73.6960253,103.387681 72.9666448,103.387681 C72.2372644,103.387681 71.6459847,102.796401 71.6459847,102.067021 C71.6459847,99.517443 72.0273099,97.3630409 73.062178,95.552906 C74.484882,93.0643895 76.9759027,91.6703956 80.5447183,91.6703956 C86.9542443,91.6703956 91.6835351,86.0311003 91.7774799,76.9477744 L91.7789049,76.6714702 L91.7789049,75.6854701 L92.7242512,75.4052622 L92.9753536,75.329464 C93.0578763,75.3040929 93.1392213,75.278619 93.2193896,75.2530488 L93.4563652,75.176056 L93.6862866,75.098525 C93.7240193,75.0855605 93.7614583,75.0725752 93.7986038,75.05957 L94.017955,74.9813054 C94.0898985,74.9551418 94.1606689,74.9289048 94.230267,74.9026012 L94.4355459,74.8234965 L94.5355498,74.7838063 L94.5355498,74.7838063 L94.7302902,74.7041749 C94.762162,74.6908767 94.7937413,74.677566 94.8250283,74.6642435 L95.0092439,74.584174 C95.1899541,74.5039765 95.3601507,74.4234148 95.519861,74.3426661 L95.6760769,74.2618616 C96.541504,73.8036905 97.0704946,73.3414115 97.2679941,72.9072758 C97.4579004,72.4898313 97.3125129,71.9247407 96.6888328,71.1792699 L96.5941316,71.0688851 C96.381476,70.8269118 96.1200338,70.5666433 95.8052466,70.2870362 L95.6561557,70.1566099 C92.6050759,67.5266366 90.4510773,60.77018 91.5928529,55.9036025 L91.6284634,55.7567151 C91.7643026,55.2141026 91.8117087,54.4814677 91.7707253,53.6301208 L91.758638,53.4148522 C91.7493522,53.269746 91.7376113,53.1215073 91.7234154,52.9704663 L91.7002803,52.7418443 C91.6877922,52.6265237 91.6739232,52.5097196 91.6586734,52.3915713 L91.6263329,52.1535238 C91.6035453,51.9936857 91.578303,51.8316229 91.5506063,51.6676657 L91.5072205,51.4203503 C91.4846072,51.2960234 91.4606133,51.1707238 91.435239,51.0445906 L91.3826498,50.7912543 C91.3463633,50.6216775 91.3076228,50.450784 91.2664283,50.278904 L91.2027963,50.0203852 C91.0500276,49.4156409 90.8672003,48.8008331 90.6543231,48.1901168 L90.5612503,47.9286729 C90.3872439,47.4499698 90.1946871,46.9750408 89.9835841,46.5107518 C87.8889186,41.903854 84.2980366,38.5428954 79.1016562,37.1099122 C78.3985214,36.9160118 77.9857055,36.1888212 78.1796059,35.4856864 C78.3735063,34.7825517 79.1006969,34.3697357 79.8038317,34.5636361 Z M54.3538717,36.6047327 C54.7680538,37.2051067 54.6171154,38.027567 54.0167414,38.4417491 C46.3376673,43.7393382 42.6178165,51.0187691 42.6415563,59.0735617 C42.661932,65.9869656 45.5501759,72.9431432 49.9462663,77.3352533 L50.0799413,77.4675601 C56.4844368,83.7470908 57.561466,92.1304819 53.388857,102.346281 C53.1130624,103.021509 52.342106,103.345314 51.6668778,103.069519 C50.9916496,102.793725 50.6678448,102.022768 50.9436395,101.34754 C54.6986704,92.1540971 53.8244888,84.9654143 48.3966113,79.5181021 L48.2307364,79.3535647 C43.2535139,74.4734579 40.0229067,66.7695027 40.0001232,59.0813464 C39.973968,50.1648005 44.1128964,42.0652702 52.5168553,36.2676023 C53.1172294,35.8534202 53.9396896,36.0043586 54.3538717,36.6047327 Z M66.3633443,28 C70.6958641,28 74.2162685,31.4770792 74.2862434,35.7929234 L74.2873049,35.9239606 L74.2873049,57.9349623 C74.2873049,58.0855465 74.2621025,58.2302443 74.2156854,58.3650679 C75.6358647,60.1074199 76.4884051,62.3333356 76.4884051,64.7583728 C76.4884051,70.3502895 71.955261,74.8834336 66.3633443,74.8834336 C60.7714277,74.8834336 56.2382836,70.3502895 56.2382836,64.7583728 C56.2382836,62.3342723 57.0901655,60.1091394 58.5108905,58.3660131 C58.4698442,58.2458583 58.4452044,58.1176857 58.4402947,57.9844735 L58.4393837,57.9349623 L58.4393837,35.9239606 C58.4393837,31.547678 61.9870617,28 66.3633443,28 Z M66.3633443,57.2746322 C62.2301885,57.2746322 58.8796038,60.625217 58.8796038,64.7583728 C58.8796038,68.8915286 62.2301885,72.2421134 66.3633443,72.2421134 C70.4965001,72.2421134 73.8470849,68.8915286 73.8470849,64.7583728 C73.8470849,60.625217 70.4965001,57.2746322 66.3633443,57.2746322 Z M66.3633443,59.9159524 C69.0377393,59.9159524 71.2057647,62.0839779 71.2057647,64.7583728 C71.2057647,67.4327677 69.0377393,69.6007932 66.3633443,69.6007932 C63.6889494,69.6007932 61.520924,67.4327677 61.520924,64.7583728 C61.520924,62.0839779 63.6889494,59.9159524 66.3633443,59.9159524 Z M66.3633443,62.5572727 C65.1477103,62.5572727 64.1622442,63.5427388 64.1622442,64.7583728 C64.1622442,65.9740069 65.1477103,66.959473 66.3633443,66.959473 C67.5789784,66.959473 68.5644445,65.9740069 68.5644445,64.7583728 C68.5644445,63.5427388 67.5789784,62.5572727 66.3633443,62.5572727 Z M66.3633443,30.6413202 C63.4749978,30.6413202 61.1280615,32.959373 61.0814117,35.8366025 L61.0807039,35.9239606 L61.0803683,56.1191439 C62.6183438,55.1766463 64.4273928,54.633312 66.3633443,54.633312 C68.2992007,54.633312 70.108167,55.1765929 71.6460936,56.119005 L71.6459847,35.9239606 C71.6459847,33.0064389 69.2808661,30.6413202 66.3633443,30.6413202 Z" id="Icons/Casque"></path>
            </g>
        </g>
    </g>
</svg>